<svg viewBox="62.642 119.101 247.62 31.54" width="247.62" height="31.54" xmlns="http://www.w3.org/2000/svg" xmlns:xlink="http://www.w3.org/1999/xlink">
  <mask id="6b8f45e4-9f19-4538-81cf-125ae9412de8">
    <g fill="white">
      <rect data-gra="graph-name-bg" stroke-width="2" x="0" y="0" width="117.89999389648438" height="31.53999900817871"></rect>
    </g>
    <g transform="translate(5,5)" fill="black">
      <g data-gra="path-name">
        <g transform="scale(1)">
          <path d="M9.06-16.06L9.93-16.24L3.47-1.05Q3.26-0.48 2.83-0.16Q2.39 0.15 1.88 0.15L1.88 0.15Q1.08 0.15 0.69-0.30Q0.30-0.75 0.30-1.41L0.30-1.41Q0.30-1.68 0.39-1.97L0.39-1.97L7.84-19.86Q8.08-20.46 8.57-20.79Q9.06-21.12 9.63-21.06L9.63-21.06Q10.17-21.06 10.63-20.75Q11.10-20.43 11.31-19.86L11.31-19.86L18.67-2.33Q18.82-1.94 18.82-1.62L18.82-1.62Q18.82-0.81 18.29-0.33Q17.77 0.15 17.14 0.15L17.14 0.15Q16.60 0.15 16.17-0.18Q15.74-0.51 15.50-1.08L15.50-1.08L9.06-16.06ZM14.69-4.70L4.40-4.70L6.04-8.14L14.12-8.14L14.69-4.70ZM24.44-3.50L32.91-3.50Q33.68-3.50 34.21-3.01Q34.73-2.51 34.73-1.74L34.73-1.74Q34.73-0.99 34.21-0.49Q33.68 0 32.91 0L32.91 0L23.18 0Q22.41 0 21.88-0.52Q21.36-1.05 21.36-1.82L21.36-1.82L21.36-19.12Q21.36-19.89 21.90-20.42Q22.44-20.94 23.27-20.94L23.27-20.94Q23.99-20.94 24.55-20.42Q25.10-19.89 25.10-19.12L25.10-19.12L25.10-2.99L24.44-3.50ZM40.00-20.94L46.82-20.94Q48.37-20.94 49.73-20.04Q51.09-19.15 51.93-17.62Q52.77-16.09 52.77-14.21L52.77-14.21Q52.77-12.35 51.93-10.83Q51.09-9.30 49.73-8.39Q48.37-7.48 46.82-7.48L46.82-7.48L41.31-7.48L41.61-8.02L41.61-1.82Q41.61-1.05 41.13-0.52Q40.65 0 39.88 0L39.88 0Q39.13 0 38.65-0.52Q38.17-1.05 38.17-1.82L38.17-1.82L38.17-19.12Q38.17-19.89 38.69-20.42Q39.22-20.94 40.00-20.94L40.00-20.94ZM41.28-10.89L46.82-10.89Q47.39-10.89 47.92-11.37Q48.46-11.85 48.82-12.61Q49.18-13.37 49.18-14.21L49.18-14.21Q49.18-15.08 48.82-15.82Q48.46-16.57 47.92-17.04Q47.39-17.50 46.82-17.50L46.82-17.50L41.25-17.50L41.61-18.04L41.61-10.41L41.28-10.89ZM58.03-20.94L58.03-20.94L68.06-20.94Q68.83-20.94 69.36-20.45Q69.88-19.95 69.88-19.18L69.88-19.18Q69.88-18.43 69.36-17.96Q68.83-17.50 68.06-17.50L68.06-17.50L59.68-17.50L59.95-18.01L59.95-12.18L59.71-12.41L66.71-12.41Q67.49-12.41 68.01-11.92Q68.54-11.43 68.54-10.65L68.54-10.65Q68.54-9.90 68.01-9.44Q67.49-8.97 66.71-8.97L66.71-8.97L59.80-8.97L59.95-9.21L59.95-3.17L59.71-3.44L68.06-3.44Q68.83-3.44 69.36-2.92Q69.88-2.39 69.88-1.71L69.88-1.71Q69.88-0.96 69.36-0.48Q68.83 0 68.06 0L68.06 0L58.03 0Q57.26 0 56.73-0.52Q56.21-1.05 56.21-1.82L56.21-1.82L56.21-19.12Q56.21-19.89 56.73-20.42Q57.26-20.94 58.03-20.94ZM80.05 0.30L80.05 0.30Q77.96 0.30 76.28-0.22Q74.61-0.75 73.08-2.06L73.08-2.06Q72.69-2.39 72.48-2.81Q72.27-3.23 72.27-3.65L72.27-3.65Q72.27-4.34 72.77-4.86Q73.26-5.38 74.01-5.38L74.01-5.38Q74.58-5.38 75.03-5.03L75.03-5.03Q76.16-4.10 77.29-3.62Q78.41-3.14 80.05-3.14L80.05-3.14Q81.16-3.14 82.09-3.49Q83.01-3.83 83.58-4.41Q84.15-5.00 84.15-5.74L84.15-5.74Q84.15-6.64 83.61-7.27Q83.07-7.90 81.97-8.33Q80.86-8.77 79.15-9.00L79.15-9.00Q77.54-9.24 76.31-9.74Q75.09-10.23 74.26-10.99Q73.44-11.76 73.02-12.79Q72.60-13.82 72.60-15.11L72.60-15.11Q72.60-17.05 73.61-18.43Q74.61-19.80 76.31-20.52Q78.02-21.24 80.08-21.24L80.08-21.24Q82.03-21.24 83.69-20.66Q85.35-20.07 86.39-19.18L86.39-19.18Q87.26-18.49 87.26-17.59L87.26-17.59Q87.26-16.93 86.75-16.39Q86.24-15.85 85.56-15.85L85.56-15.85Q85.11-15.85 84.75-16.12L84.75-16.12Q84.27-16.54 83.46-16.92Q82.65-17.29 81.76-17.55Q80.86-17.80 80.08-17.80L80.08-17.80Q78.80-17.80 77.91-17.47Q77.03-17.14 76.58-16.57Q76.13-16.00 76.13-15.26L76.13-15.26Q76.13-14.36 76.66-13.78Q77.18-13.19 78.17-12.85Q79.15-12.50 80.53-12.24L80.53-12.24Q82.33-11.91 83.69-11.46Q85.05-11.01 85.95-10.31Q86.84-9.60 87.29-8.54Q87.74-7.48 87.74-5.95L87.74-5.95Q87.74-4.01 86.66-2.60Q85.59-1.20 83.84-0.45Q82.09 0.30 80.05 0.30ZM93.10-20.94L93.10-20.94Q93.81-20.94 94.37-20.42Q94.92-19.89 94.92-19.12L94.92-19.12L94.92-1.82Q94.92-1.05 94.35-0.52Q93.78 0 93.04 0L93.04 0Q92.20 0 91.69-0.52Q91.18-1.05 91.18-1.82L91.18-1.82L91.18-19.12Q91.18-19.89 91.72-20.42Q92.26-20.94 93.10-20.94ZM106.35-20.94L106.35-20.94Q107.19-20.94 107.69-20.42Q108.20-19.89 108.20-19.12L108.20-19.12L108.20-1.82Q108.20-1.05 107.68-0.52Q107.16 0 106.29 0L106.29 0Q105.57 0 105.02-0.52Q104.46-1.05 104.46-1.82L104.46-1.82L104.46-19.12Q104.46-19.89 105.03-20.42Q105.60-20.94 106.35-20.94ZM93.01-8.79L93.01-12.24L106.35-12.24L106.35-8.79L93.01-8.79Z" transform="translate(-0.2991489902197384, 21.239578305601423)"></path>
        </g>
      </g>
    </g>
  </mask>
  <g data-v-2cb57da0="" fill="#f96b07" transform="matrix(1, 0, 0, 1, 62.642289, 119.101374)">
    <g>
      <rect data-gra="graph-name-bg" stroke-width="2" x="0" y="0" width="247.6199951171875" height="31.53999900817871" fill-opacity="0" stroke="#f96b07"></rect>
    </g>
    <g>
      <g data-gra="path-name-bg" mask="url(#6b8f45e4-9f19-4538-81cf-125ae9412de8)">
        <g>
          <rect data-gra="graph-name-bg" stroke-width="2" x="0" y="0" width="117.89999389648438" height="31.53999900817871"></rect>
        </g>
        <g transform="translate(5,5)">
          <g data-gra="path-name">
            <g transform="scale(1)">
              <path d="M9.06-16.06L9.93-16.24L3.47-1.05Q3.26-0.48 2.83-0.16Q2.39 0.15 1.88 0.15L1.88 0.15Q1.08 0.15 0.69-0.30Q0.30-0.75 0.30-1.41L0.30-1.41Q0.30-1.68 0.39-1.97L0.39-1.97L7.84-19.86Q8.08-20.46 8.57-20.79Q9.06-21.12 9.63-21.06L9.63-21.06Q10.17-21.06 10.63-20.75Q11.10-20.43 11.31-19.86L11.31-19.86L18.67-2.33Q18.82-1.94 18.82-1.62L18.82-1.62Q18.82-0.81 18.29-0.33Q17.77 0.15 17.14 0.15L17.14 0.15Q16.60 0.15 16.17-0.18Q15.74-0.51 15.50-1.08L15.50-1.08L9.06-16.06ZM14.69-4.70L4.40-4.70L6.04-8.14L14.12-8.14L14.69-4.70ZM24.44-3.50L32.91-3.50Q33.68-3.50 34.21-3.01Q34.73-2.51 34.73-1.74L34.73-1.74Q34.73-0.99 34.21-0.49Q33.68 0 32.91 0L32.91 0L23.18 0Q22.41 0 21.88-0.52Q21.36-1.05 21.36-1.82L21.36-1.82L21.36-19.12Q21.36-19.89 21.90-20.42Q22.44-20.94 23.27-20.94L23.27-20.94Q23.99-20.94 24.55-20.42Q25.10-19.89 25.10-19.12L25.10-19.12L25.10-2.99L24.44-3.50ZM40.00-20.94L46.82-20.94Q48.37-20.94 49.73-20.04Q51.09-19.15 51.93-17.62Q52.77-16.09 52.77-14.21L52.77-14.21Q52.77-12.35 51.93-10.83Q51.09-9.30 49.73-8.39Q48.37-7.48 46.82-7.48L46.82-7.48L41.31-7.48L41.61-8.02L41.61-1.82Q41.61-1.05 41.13-0.52Q40.65 0 39.88 0L39.88 0Q39.13 0 38.65-0.52Q38.17-1.05 38.17-1.82L38.17-1.82L38.17-19.12Q38.17-19.89 38.69-20.42Q39.22-20.94 40.00-20.94L40.00-20.94ZM41.28-10.89L46.82-10.89Q47.39-10.89 47.92-11.37Q48.46-11.85 48.82-12.61Q49.18-13.37 49.18-14.21L49.18-14.21Q49.18-15.08 48.82-15.82Q48.46-16.57 47.92-17.04Q47.39-17.50 46.82-17.50L46.82-17.50L41.25-17.50L41.61-18.04L41.61-10.41L41.28-10.89ZM58.03-20.94L58.03-20.94L68.06-20.94Q68.83-20.94 69.36-20.45Q69.88-19.95 69.88-19.18L69.88-19.18Q69.88-18.43 69.36-17.96Q68.83-17.50 68.06-17.50L68.06-17.50L59.68-17.50L59.95-18.01L59.95-12.18L59.71-12.41L66.71-12.41Q67.49-12.41 68.01-11.92Q68.54-11.43 68.54-10.65L68.54-10.65Q68.54-9.90 68.01-9.44Q67.49-8.97 66.71-8.97L66.71-8.97L59.80-8.97L59.95-9.21L59.95-3.17L59.71-3.44L68.06-3.44Q68.83-3.44 69.36-2.92Q69.88-2.39 69.88-1.71L69.88-1.71Q69.88-0.96 69.36-0.48Q68.83 0 68.06 0L68.06 0L58.03 0Q57.26 0 56.73-0.52Q56.21-1.05 56.21-1.82L56.21-1.82L56.21-19.12Q56.21-19.89 56.73-20.42Q57.26-20.94 58.03-20.94ZM80.05 0.30L80.05 0.30Q77.96 0.30 76.28-0.22Q74.61-0.75 73.08-2.06L73.08-2.06Q72.69-2.39 72.48-2.81Q72.27-3.23 72.27-3.65L72.27-3.65Q72.27-4.34 72.77-4.86Q73.26-5.38 74.01-5.38L74.01-5.38Q74.58-5.38 75.03-5.03L75.03-5.03Q76.16-4.10 77.29-3.62Q78.41-3.14 80.05-3.14L80.05-3.14Q81.16-3.14 82.09-3.49Q83.01-3.83 83.58-4.41Q84.15-5.00 84.15-5.74L84.15-5.74Q84.15-6.64 83.61-7.27Q83.07-7.90 81.97-8.33Q80.86-8.77 79.15-9.00L79.15-9.00Q77.54-9.24 76.31-9.74Q75.09-10.23 74.26-10.99Q73.44-11.76 73.02-12.79Q72.60-13.82 72.60-15.11L72.60-15.11Q72.60-17.05 73.61-18.43Q74.61-19.80 76.31-20.52Q78.02-21.24 80.08-21.24L80.08-21.24Q82.03-21.24 83.69-20.66Q85.35-20.07 86.39-19.18L86.39-19.18Q87.26-18.49 87.26-17.59L87.26-17.59Q87.26-16.93 86.75-16.39Q86.24-15.85 85.56-15.85L85.56-15.85Q85.11-15.85 84.75-16.12L84.75-16.12Q84.27-16.54 83.46-16.92Q82.65-17.29 81.76-17.55Q80.86-17.80 80.08-17.80L80.08-17.80Q78.80-17.80 77.91-17.47Q77.03-17.14 76.58-16.57Q76.13-16.00 76.13-15.26L76.13-15.26Q76.13-14.36 76.66-13.78Q77.18-13.19 78.17-12.85Q79.15-12.50 80.53-12.24L80.53-12.24Q82.33-11.91 83.69-11.46Q85.05-11.01 85.95-10.31Q86.84-9.60 87.29-8.54Q87.74-7.48 87.74-5.95L87.74-5.95Q87.74-4.01 86.66-2.60Q85.59-1.20 83.84-0.45Q82.09 0.30 80.05 0.30ZM93.10-20.94L93.10-20.94Q93.81-20.94 94.37-20.42Q94.92-19.89 94.92-19.12L94.92-19.12L94.92-1.82Q94.92-1.05 94.35-0.52Q93.78 0 93.04 0L93.04 0Q92.20 0 91.69-0.52Q91.18-1.05 91.18-1.82L91.18-1.82L91.18-19.12Q91.18-19.89 91.72-20.42Q92.26-20.94 93.10-20.94ZM106.35-20.94L106.35-20.94Q107.19-20.94 107.69-20.42Q108.20-19.89 108.20-19.12L108.20-19.12L108.20-1.82Q108.20-1.05 107.68-0.52Q107.16 0 106.29 0L106.29 0Q105.57 0 105.02-0.52Q104.46-1.05 104.46-1.82L104.46-1.82L104.46-19.12Q104.46-19.89 105.03-20.42Q105.60-20.94 106.35-20.94ZM93.01-8.79L93.01-12.24L106.35-12.24L106.35-8.79L93.01-8.79Z" transform="translate(-0.2991489902197384, 21.239578305601423)"></path>
            </g>
          </g>
        </g>
      </g>
      <g data-gra="path-name-1-bg" transform="translate(117.9000015258789,0)">
        <g>
          <rect data-gra="graph-name-bg" stroke-width="2" x="0" y="0" width="129.72000122070312" height="31.53999900817871" fill-opacity="0"></rect>
        </g>
        <g transform="translate(5,5)">
          <g data-gra="path-name-1" fill="#f96b07">
            <g transform="scale(1)">
              <path d="M4.07-20.94L11.61-20.94Q14.48-20.94 15.88-19.59Q17.29-18.25 17.29-15.62L17.29-15.62Q17.29-14.21 16.60-13.15Q15.91-12.09 14.57-11.50Q13.22-10.92 11.25-10.92L11.25-10.92L11.37-12.27Q12.30-12.27 13.49-12.01Q14.69-11.76 15.81-11.11Q16.93-10.47 17.66-9.32Q18.40-8.17 18.40-6.37L18.40-6.37Q18.40-4.40 17.75-3.14Q17.11-1.88 16.06-1.20Q15.02-0.51 13.82-0.25Q12.62 0 11.52 0L11.52 0L4.07 0Q3.29 0 2.77-0.52Q2.24-1.05 2.24-1.82L2.24-1.82L2.24-19.12Q2.24-19.89 2.77-20.42Q3.29-20.94 4.07-20.94L4.07-20.94ZM11.07-17.41L11.07-17.41L5.74-17.41L6.13-17.89L6.13-12.47L5.77-12.74L11.16-12.74Q12.03-12.74 12.71-13.31Q13.40-13.88 13.40-14.96L13.40-14.96Q13.40-16.24 12.76-16.83Q12.12-17.41 11.07-17.41ZM11.31-9.21L11.31-9.21L5.86-9.21L6.13-9.45L6.13-3.14L5.83-3.44L11.52-3.44Q12.89-3.44 13.70-4.17Q14.51-4.91 14.51-6.37L14.51-6.37Q14.51-7.72 13.97-8.32Q13.43-8.91 12.68-9.06Q11.94-9.21 11.31-9.21ZM28.66-16.06L29.53-16.24L23.06-1.05Q22.85-0.48 22.42-0.16Q21.99 0.15 21.48 0.15L21.48 0.15Q20.67 0.15 20.28-0.30Q19.89-0.75 19.89-1.41L19.89-1.41Q19.89-1.68 19.98-1.97L19.98-1.97L27.43-19.86Q27.67-20.46 28.16-20.79Q28.66-21.12 29.23-21.06L29.23-21.06Q29.77-21.06 30.23-20.75Q30.69-20.43 30.90-19.86L30.90-19.86L38.26-2.33Q38.41-1.94 38.41-1.62L38.41-1.62Q38.41-0.81 37.89-0.33Q37.36 0.15 36.74 0.15L36.74 0.15Q36.20 0.15 35.76-0.18Q35.33-0.51 35.09-1.08L35.09-1.08L28.66-16.06ZM34.28-4.70L23.99-4.70L25.64-8.14L33.71-8.14L34.28-4.70ZM43.11 0L43.11 0Q42.27 0 41.61-0.52Q40.95-1.05 40.95-1.82L40.95-1.82L40.95-19.12Q40.95-19.89 41.48-20.42Q42.00-20.94 42.78-20.94L42.78-20.94L51.39-20.94Q52.95-20.94 54.31-20.12Q55.67-19.30 56.51-17.84Q57.35-16.39 57.35-14.51L57.35-14.51Q57.35-13.37 56.88-12.30Q56.42-11.22 55.63-10.35Q54.83-9.48 53.85-9.00L53.85-9.00L53.88-9.69Q54.71-9.24 55.27-8.63Q55.82-8.02 56.14-7.31Q56.45-6.61 56.51-5.80L56.51-5.80Q56.63-5.06 56.67-4.49Q56.72-3.92 56.85-3.53Q56.99-3.14 57.38-2.93L57.38-2.93Q58.03-2.54 58.20-1.81Q58.36-1.08 57.86-0.51L57.86-0.51Q57.53-0.12 57.02-0.01Q56.51 0.09 56.00-0.01Q55.49-0.12 55.16-0.30L55.16-0.30Q54.65-0.60 54.15-1.18Q53.64-1.76 53.32-2.75Q53.01-3.74 53.01-5.29L53.01-5.29Q53.01-5.80 52.83-6.24Q52.65-6.67 52.32-6.99Q51.99-7.30 51.48-7.46Q50.97-7.63 50.29-7.63L50.29-7.63L44.24-7.63L44.69-8.32L44.69-1.82Q44.69-1.05 44.27-0.52Q43.86 0 43.11 0ZM44.69-9.99L44.27-10.71L51.24-10.71Q51.78-10.71 52.29-11.20Q52.80-11.70 53.13-12.55Q53.46-13.40 53.46-14.42L53.46-14.42Q53.46-15.74 52.75-16.62Q52.05-17.50 51.24-17.50L51.24-17.50L44.33-17.50L44.69-18.46L44.69-9.99ZM68.33-16.06L69.19-16.24L62.73-1.05Q62.52-0.48 62.09-0.16Q61.65 0.15 61.15 0.15L61.15 0.15Q60.34 0.15 59.95-0.30Q59.56-0.75 59.56-1.41L59.56-1.41Q59.56-1.68 59.65-1.97L59.65-1.97L67.10-19.86Q67.34-20.46 67.83-20.79Q68.33-21.12 68.89-21.06L68.89-21.06Q69.43-21.06 69.90-20.75Q70.36-20.43 70.57-19.86L70.57-19.86L77.93-2.33Q78.08-1.94 78.08-1.62L78.08-1.62Q78.08-0.81 77.55-0.33Q77.03 0.15 76.40 0.15L76.40 0.15Q75.86 0.15 75.43-0.18Q75.00-0.51 74.76-1.08L74.76-1.08L68.33-16.06ZM73.95-4.70L63.66-4.70L65.30-8.14L73.38-8.14L73.95-4.70ZM84.36-19.12L84.36-1.82Q84.36-1.05 83.79-0.52Q83.22 0 82.48 0L82.48 0Q81.64 0 81.13-0.52Q80.62-1.05 80.62-1.82L80.62-1.82L80.62-19.12Q80.62-19.89 81.16-20.42Q81.70-20.94 82.54-20.94L82.54-20.94Q83.25-20.94 83.81-20.42Q84.36-19.89 84.36-19.12L84.36-19.12ZM102.19-21.03L102.19-21.03Q102.88-21.03 103.43-20.51Q103.98-19.98 103.98-19.18L103.98-19.18Q103.98-18.91 103.91-18.62Q103.83-18.34 103.66-18.07L103.66-18.07L96.86-8.35L97.40-10.41L97.40-1.82Q97.40-1.05 96.88-0.52Q96.36 0 95.67 0L95.67 0Q94.92 0 94.40-0.52Q93.87-1.05 93.87-1.82L93.87-1.82L93.87-10.17L94.11-9.21L87.65-17.80Q87.35-18.19 87.23-18.55Q87.11-18.91 87.11-19.21L87.11-19.21Q87.11-20.01 87.74-20.52Q88.37-21.03 89.03-21.03L89.03-21.03Q89.86-21.03 90.49-20.19L90.49-20.19L96.24-12.27L95.40-12.38L100.69-20.13Q101.32-21.03 102.19-21.03ZM112.21-16.06L113.08-16.24L106.62-1.05Q106.41-0.48 105.97-0.16Q105.54 0.15 105.03 0.15L105.03 0.15Q104.22 0.15 103.83-0.30Q103.45-0.75 103.45-1.41L103.45-1.41Q103.45-1.68 103.54-1.97L103.54-1.97L110.98-19.86Q111.22-20.46 111.72-20.79Q112.21-21.12 112.78-21.06L112.78-21.06Q113.32-21.06 113.78-20.75Q114.24-20.43 114.45-19.86L114.45-19.86L121.81-2.33Q121.96-1.94 121.96-1.62L121.96-1.62Q121.96-0.81 121.44-0.33Q120.92 0.15 120.29 0.15L120.29 0.15Q119.75 0.15 119.32-0.18Q118.88-0.51 118.64-1.08L118.64-1.08L112.21-16.06ZM117.83-4.70L107.54-4.70L109.19-8.14L117.27-8.14L117.83-4.70Z" transform="translate(-2.2436174266480378, 21.239578305601423)"></path>
            </g>
          </g>
        </g>
      </g>
    </g>
  </g>
</svg>